{"title":"The Chronicles of Narnia The Voyage of the Dawn Treader R5 LiNE ","uid":6120127,"size":1531645685,"categoryP":"video","categoryS":"movies","magnet":"?xt=urn:btih:61cb5378bd1f877866e3c674bd48de2cf85b2ece&amp;dn=The+Chronicles+of+Narnia+The+Voyage+of+the+Dawn+Treader+R5+LiNE+&amp;tr=udp%3A%2F%2Ftracker.openbittorrent.com%3A80&amp;tr=udp%3A%2F%2Fopen.demonii.com%3A1337&amp;tr=udp%3A%2F%2Ftracker.coppersurfer.tk%3A6969&amp;tr=udp%3A%2F%2Fexodus.desync.com%3A6969","seeders":0,"leechers":0,"uploader":"SAFCukO09","files":3,"time":1295710113,"description":"Voyage of the Dawn Treader R5 LiNE XViD.avi\nFormat : AVI\nFormat/Info : Audio Video Interleave\nFile size : 1.40 GiB\nDuration : 1h 48mn\nOverall bit rate : 1 858 Kbps\nWriting library : VirtualDub build 32839/release\n\nVideo\nID : 0\nFormat : MPEG-4 Visual\nFormat profile : Advanced Simple@L5\nFormat settings, BVOP : Yes\nFormat settings, QPel : No\nFormat settings, GMC : No warppoints\nFormat settings, Matrix : Custom\nCodec ID : XVID\nCodec ID/Hint : XviD\nDuration : 1h 48mn\nBit rate : 1 720 Kbps\nWidth : 672 pixels\nHeight : 358 pixels\nDisplay aspect ratio : 1.877\nFrame rate : 25.000 fps\nColor space : YUV\nChroma subsampling : 4:2:0\nBit depth : 8 bits\nScan type : Progressive\nBits/(Pixel*Frame) : 0.286\nStream size : 1.30 GiB (93%)\nWriting library : XviD 1.2.1 (UTC 2008-12-04)\n\nAudio\nID : 1\nFormat : MPEG Audio\nFormat version : Version 1\nFormat profile : Layer 3\nCodec ID : 55\nCodec ID/Hint : MP3\nDuration : 1h 48mn\nBit rate mode : Constant\nBit rate : 128 Kbps\nChannel(s) : 2 channels\nSampling rate : 44.1 KHz\nStream size : 98.9 MiB (7%)\nAlignment : Split accross interleaves\nInterleave, duration : 40 ms (1.00 video frame)\nInterleave, preload duration : 500 ms\n\n &lt;a href=&quot;\nhttp://www.imdb.com/title/tt0980970/&quot; rel=&quot;nofollow&quot; target=&quot;_NEW&quot;&gt;\nhttp://www.imdb.com/title/tt0980970/&lt;/a&gt;\n\nUsers: 6.7/10 (9,448 votes) 162 reviews | Critics: 147 reviews Metascore: 53/100 (based on 33 reviews from Metacritic.com)\n\nLucy and Edmund Pevensie return to Narnia with their cousin Eustace where they meet up with Prince Caspian for a trip across the sea aboard the royal ship The Dawn Treader. Along the way they encounter dragons, dwarves, merfolk, and a band of lost warriors before reaching the edge of the world.\nDirector:\nMichael Apted\nWriters:\nChristopher Markus (screenplay), Stephen McFeely (screenplay), and 2 more credits Ã‚Â»\nStars:\nBen Barnes, Skandar Keynes and Georgie Henley","torrent":{"xt":"urn:btih:61cb5378bd1f877866e3c674bd48de2cf85b2ece","amp;dn":"The+Chronicles+of+Narnia+The+Voyage+of+the+Dawn+Treader+R5+LiNE+","amp;tr":["udp%3A%2F%2Ftracker.openbittorrent.com%3A80","udp%3A%2F%2Fopen.demonii.com%3A1337","udp%3A%2F%2Ftracker.coppersurfer.tk%3A6969","udp%3A%2F%2Fexodus.desync.com%3A6969"],"infoHash":"61cb5378bd1f877866e3c674bd48de2cf85b2ece","infoHashBuffer":{"type":"Buffer","data":[97,203,83,120,189,31,135,120,102,227,198,116,189,72,222,44,248,91,46,206]},"announce":[],"urlList":[]}}